<?xml version="1.0" encoding="iso-8859-1"?>
<!-- Generator: Adobe Illustrator 16.0.0, SVG Export Plug-In . SVG Version: 6.00 Build 0)  -->
<!DOCTYPE svg PUBLIC "-//W3C//DTD SVG 1.1//EN" "http://www.w3.org/Graphics/SVG/1.1/DTD/svg11.dtd">
<svg version="1.1" id="Capa_1" xmlns="http://www.w3.org/2000/svg" xmlns:xlink="http://www.w3.org/1999/xlink" x="0px" y="0px"
	 width="324.624px" height="324.624px" viewBox="0 0 324.624 324.624" style="enable-background:new 0 0 324.624 324.624;"
	 xml:space="preserve">
<g>
	<g>
		<path d="M321.572,41.032c-10.595,4.611-18.61-1.745-18.61-1.745s-7.011,6.441-12.345,1.007
			c-5.333-5.434,4.163-13.421,4.163-13.421c-6.399-10.605,15.731-26.548,7.561-24.756c-8.171,1.792-19.066,7.599-19.066,7.599
			c-4.557,31.142-40.596,46.953-40.596,46.953c4.773,5.657,2.485,11.221-0.26,14.89l-51.123,52.68
			c-27.801-0.471,0.492-54.461,0.492-54.461c-39.289-4.534-29.407,73.783-105.75,77.411C9.693,150.811,0,207.817,0,207.817
			l0.686,0.745c38.743-19.614,80.134-17.74,104.404,10.802c23.082,27.144,21.974,68.175,0.624,103.282
			c11.459-2.636,45.728-21.002,51.152-49.74c5.525-29.298,17.647-62.122,43.025-66.602s36.76-17.077,42.549-24.497
			c5.778-7.416-1.533-6.209-1.533-6.209c-59.869,24.291-43.615-17.836-36.288-32.975l49.876-51.395
			c8.383-8.671,20.857-2.175,20.857-2.175c1.9-11.198,15.73-26.098,26.522-28.689C312.666,57.771,332.156,36.418,321.572,41.032z"/>
	</g>
</g>
<g>
</g>
<g>
</g>
<g>
</g>
<g>
</g>
<g>
</g>
<g>
</g>
<g>
</g>
<g>
</g>
<g>
</g>
<g>
</g>
<g>
</g>
<g>
</g>
<g>
</g>
<g>
</g>
<g>
</g>
</svg>
